<svg xmlns="http://www.w3.org/2000/svg" viewBox="0 0 240 280" role="img" aria-label="3D crtani frog"><defs><linearGradient id="g" x1="0" y1="0" x2="1" y2="1"><stop stop-color="#d6f36a"/><stop offset=".45" stop-color="#60a94b"/><stop offset="1" stop-color="#39281f"/></linearGradient><radialGradient id="face"><stop stop-color="#fff"/><stop offset="1" stop-color="#d8e9ee"/></radialGradient><filter id="s"><feDropShadow dx="0" dy="10" stdDeviation="8" flood-opacity=".35"/></filter></defs><g filter="url(#s)"><ellipse cx="120" cy="190" rx="70" ry="70" fill="url(#g)"/><circle cx="120" cy="112" r="73" fill="url(#g)"/><circle cx="79" cy="83" r="32" fill="url(#g)"/><circle cx="161" cy="83" r="32" fill="url(#g)"/><ellipse cx="91" cy="108" rx="28" ry="32" fill="url(#face)"/><ellipse cx="149" cy="108" rx="28" ry="32" fill="url(#face)"/><circle cx="96" cy="112" r="14" fill="#183147"/><circle cx="154" cy="112" r="14" fill="#183147"/><circle cx="101" cy="105" r="5" fill="#fff"/><circle cx="159" cy="105" r="5" fill="#fff"/><ellipse cx="120" cy="145" rx="23" ry="16" fill="#d6f36a"/><path d="M98 163q22 20 44 0" fill="none" stroke="#4b2924" stroke-width="6" stroke-linecap="round"/><path d="M73 190q-28 18-33 48M167 190q28 18 33 48" fill="none" stroke="#60a94b" stroke-width="22" stroke-linecap="round"/><path d="M93 244v24M147 244v24" stroke="#60a94b" stroke-width="22" stroke-linecap="round"/></g></svg>